<?xml version="1.0" encoding="utf-8"?>

<!-- License Agreement at http://iconmonstr.com/license/ -->

<!DOCTYPE svg PUBLIC "-//W3C//DTD SVG 1.1//EN" "http://www.w3.org/Graphics/SVG/1.1/DTD/svg11.dtd">
<svg version="1.1" xmlns="http://www.w3.org/2000/svg" xmlns:xlink="http://www.w3.org/1999/xlink" x="0px" y="0px"
	 width="512px" height="512px" viewBox="0 0 512 512" enable-background="new 0 0 512 512" xml:space="preserve">
<path id="rocket-6-icon" d="M83.439,308.823l-32.042-9.734l22.789-24.539l-7.591-32.617l32.646,7.469l24.454-22.885l9.854,32.006
	l32.043,9.736l-16.691,17.971c-3.59-1.807-7.068-4.322-10.467-7.561l3.818-4.109l-18.944-5.756l-5.826-18.922l-14.459,13.529
	l-19.303-4.416l4.488,19.285l-13.474,14.508l18.945,5.756l5.827,18.924l3.629-3.396c3.147,3.061,6.413,5.859,9.794,8.385
	l-19.636,18.373L83.439,308.823z M198.42,462l230.144-230.81l-21.211-21.213L155.995,462H198.42z M362.987,83.203L210.079,236.112
	l-0.191,0.191l64.409,64.408l153.099-153.098L362.987,83.203z M370.427,50l90.176,90.173L460.601,50H370.427z M206.392,312.288
	c9.931-5.646,19.499-13.049,28.365-21.863l-14.099-14.184c-4.324,4.299-12.401,11.619-22.683,17.764L206.392,312.288z
	 M146.703,301.649c-6.687-2.561-13.391-6.848-19.922-13.385l-14.146,14.137c8.651,8.658,17.953,14.6,27.598,18.148L146.703,301.649z
	 M184.504,300.614c-7.193,2.742-14.973,4.418-22.991,4.084l-6.646,19.412c12.571,1.584,25.446-0.416,37.998-5.336L184.504,300.614z"
	/>
</svg>
